# Blender v2.80 (sub 75) OBJ File: 'Pallet.blend'
# www.blender.org
o Cube.000_Cube.003
v -0.599498 0.012112 0.599047
v -0.599498 0.037159 0.599047
v -0.599498 0.012112 -0.600953
v -0.599498 0.037159 -0.600953
v 0.599498 0.012112 0.599047
v 0.599498 0.037159 0.599047
v 0.599498 0.012112 -0.600953
v 0.599498 0.037159 -0.600953
v 0.600000 -0.102841 -0.030039
v 0.600000 -0.102841 0.035113
v -0.600000 -0.102841 0.035113
v -0.599999 -0.102841 -0.030039
v 0.600000 0.012368 -0.030039
v 0.599999 0.012368 0.035113
v -0.600000 0.012368 0.035113
v -0.600000 0.012368 -0.030039
v 0.600000 -0.102841 -0.591243
v 0.600000 -0.102841 -0.526091
v -0.600000 -0.102841 -0.526091
v -0.599999 -0.102841 -0.591243
v 0.600000 0.012368 -0.591243
v 0.599999 0.012368 -0.526091
v -0.600000 0.012368 -0.526091
v -0.600000 0.012368 -0.591243
v 0.600000 -0.102841 0.528801
v 0.600000 -0.102841 0.593953
v -0.600000 -0.102841 0.593953
v -0.599999 -0.102841 0.528801
v 0.600000 0.012368 0.528801
v 0.599999 0.012368 0.593953
v -0.600000 0.012368 0.593953
v -0.600000 0.012368 0.528801
vt 0.582376 0.992718
vt 0.568613 0.992718
vt 0.568613 0.507282
vt 0.582376 0.507282
vt 0.596552 0.992306
vt 0.582789 0.992306
vt 0.582789 0.507275
vt 0.596552 0.507275
vt 0.568201 0.992718
vt 0.554438 0.992718
vt 0.554438 0.507282
vt 0.568200 0.507282
vt 0.610728 0.992306
vt 0.596965 0.992306
vt 0.596965 0.507275
vt 0.610728 0.507275
vt 0.507282 0.007282
vt 0.992718 0.007282
vt 0.992718 0.492718
vt 0.507282 0.492718
vt 0.492718 0.492718
vt 0.007282 0.492718
vt 0.007282 0.007282
vt 0.492718 0.007282
vt 0.445949 0.507282
vt 0.472327 0.507282
vt 0.472327 0.992718
vt 0.445949 0.992718
vt 0.445158 0.507282
vt 0.445158 0.992718
vt 0.418780 0.992718
vt 0.418780 0.507282
vt 0.664877 0.566097
vt 0.664877 0.629347
vt 0.638499 0.629347
vt 0.638499 0.566097
vt 0.194658 0.992718
vt 0.131355 0.992718
vt 0.131355 0.507282
vt 0.194658 0.507282
vt 0.664877 0.500949
vt 0.664877 0.564199
vt 0.638499 0.564199
vt 0.638499 0.500949
vt 0.000950 0.507282
vt 0.064253 0.507282
vt 0.064253 0.992718
vt 0.000950 0.992718
vt 0.499497 0.992718
vt 0.473119 0.992718
vt 0.473119 0.507282
vt 0.499497 0.507282
vt 0.526666 0.507282
vt 0.526666 0.992718
vt 0.500288 0.992718
vt 0.500288 0.507282
vt 0.692046 0.500949
vt 0.692046 0.564199
vt 0.665668 0.564199
vt 0.665668 0.500949
vt 0.129455 0.992718
vt 0.066152 0.992718
vt 0.066152 0.507282
vt 0.129455 0.507282
vt 0.692046 0.566097
vt 0.692046 0.629347
vt 0.665668 0.629347
vt 0.665668 0.566097
vt 0.325063 0.992718
vt 0.261760 0.992718
vt 0.261760 0.507282
vt 0.325063 0.507282
vt 0.417989 0.992718
vt 0.391611 0.992718
vt 0.391611 0.507282
vt 0.417989 0.507282
vt 0.527458 0.992718
vt 0.527458 0.507282
vt 0.553835 0.507282
vt 0.553835 0.992718
vt 0.637708 0.566097
vt 0.637708 0.629347
vt 0.611330 0.629347
vt 0.611330 0.566097
vt 0.259860 0.992718
vt 0.196557 0.992718
vt 0.196557 0.507282
vt 0.259860 0.507282
vt 0.637708 0.500949
vt 0.637708 0.564199
vt 0.611330 0.564199
vt 0.611330 0.500949
vt 0.390265 0.992718
vt 0.326962 0.992718
vt 0.326962 0.507282
vt 0.390265 0.507282
vn -1.0000 0.0000 0.0000
vn 0.0000 0.0000 -1.0000
vn 1.0000 0.0000 0.0000
vn 0.0000 0.0000 1.0000
vn 0.0000 -1.0000 0.0000
vn 0.0000 1.0000 0.0000
s off
f 1/1/1 2/2/1 4/3/1 3/4/1
f 3/5/2 4/6/2 8/7/2 7/8/2
f 7/9/3 8/10/3 6/11/3 5/12/3
f 5/13/4 6/14/4 2/15/4 1/16/4
f 3/17/5 7/18/5 5/19/5 1/20/5
f 8/21/6 4/22/6 2/23/6 6/24/6
f 9/25/5 10/26/5 11/27/5 12/28/5
f 13/29/6 16/30/6 15/31/6 14/32/6
f 9/33/3 13/34/3 14/35/3 10/36/3
f 10/37/4 14/38/4 15/39/4 11/40/4
f 11/41/1 15/42/1 16/43/1 12/44/1
f 13/45/2 9/46/2 12/47/2 16/48/2
f 17/49/5 18/50/5 19/51/5 20/52/5
f 21/53/6 24/54/6 23/55/6 22/56/6
f 17/57/3 21/58/3 22/59/3 18/60/3
f 18/61/4 22/62/4 23/63/4 19/64/4
f 19/65/1 23/66/1 24/67/1 20/68/1
f 21/69/2 17/70/2 20/71/2 24/72/2
f 25/73/5 26/74/5 27/75/5 28/76/5
f 29/77/6 32/78/6 31/79/6 30/80/6
f 25/81/3 29/82/3 30/83/3 26/84/3
f 26/85/4 30/86/4 31/87/4 27/88/4
f 27/89/1 31/90/1 32/91/1 28/92/1
f 29/93/2 25/94/2 28/95/2 32/96/2
